<?xml version="1.0" standalone="no"?>
<!DOCTYPE svg PUBLIC "-//W3C//DTD SVG 20010904//EN"
 "http://www.w3.org/TR/2001/REC-SVG-20010904/DTD/svg10.dtd">
<svg version="1.0" xmlns="http://www.w3.org/2000/svg"
 width="16.000000pt" height="16.000000pt" viewBox="0 0 16.000000 16.000000"
 preserveAspectRatio="xMidYMid meet">
<metadata>
Created by potrace 1.11, written by Peter Selinger 2001-2013
</metadata>
<g transform="translate(0.000000,16.000000) scale(0.002909,-0.002909)"
fill="#000000" stroke="none">
<path d="M2369 4746 c-2 -2 -31 -7 -64 -10 -88 -10 -223 -35 -275 -51 -25 -8
-56 -16 -70 -19 -77 -14 -408 -155 -418 -178 -2 -5 -8 -8 -13 -8 -9 0 -115
-64 -144 -87 -6 -4 -46 -35 -90 -67 -79 -59 -269 -243 -333 -321 -126 -156
-235 -338 -304 -505 -36 -90 -86 -238 -93 -282 -3 -17 -8 -34 -10 -38 -5 -7
-9 -30 -32 -160 -17 -99 -24 -463 -10 -545 4 -22 9 -59 12 -82 3 -23 12 -73
21 -110 9 -37 17 -72 18 -78 72 -313 281 -680 527 -926 115 -114 320 -279 348
-279 5 0 11 -4 13 -8 2 -4 35 -26 73 -48 249 -143 538 -234 820 -260 139 -13
392 -7 480 10 11 2 40 7 65 11 67 11 68 11 155 34 89 24 94 26 115 33 8 3 44
16 80 29 36 12 99 38 140 57 41 20 77 36 80 36 12 3 148 82 176 103 17 12 36
23 42 23 6 0 12 5 14 11 2 6 44 -6 103 -30 55 -21 132 -51 170 -66 39 -14 84
-33 102 -41 17 -8 34 -14 37 -14 6 0 163 -60 211 -80 24 -10 223 -85 247 -93
18 -6 18 -4 -14 71 -6 15 -12 32 -14 37 -3 10 -163 422 -179 460 -5 11 -9 22
-10 25 -1 3 -9 22 -18 44 -9 21 -17 41 -17 45 0 3 -17 49 -38 101 l-38 95 39
60 c132 203 255 546 282 785 2 19 7 54 10 78 15 94 9 337 -11 497 -6 51 -39
206 -55 260 -22 74 -52 163 -65 192 -8 17 -14 33 -14 36 0 9 -100 210 -120
242 -11 17 -27 43 -36 59 -16 29 -109 161 -129 182 -5 7 -26 31 -45 55 -66 82
-280 285 -314 298 -6 2 -15 10 -21 16 -33 40 -295 191 -415 239 -36 15 -74 31
-85 36 -11 5 -38 14 -60 21 -22 6 -44 14 -50 18 -5 3 -14 6 -20 8 -46 10 -59
13 -75 18 -10 3 -29 8 -42 11 -78 16 -128 26 -163 30 -22 3 -51 8 -65 11 -29
6 -405 14 -411 9z m286 -611 c104 -9 110 -10 177 -24 32 -7 60 -12 63 -12 15
1 192 -66 265 -100 225 -108 426 -283 570 -498 44 -66 140 -251 140 -270 0 -6
4 -19 10 -29 8 -15 41 -123 41 -137 0 -2 5 -19 10 -37 6 -18 12 -46 14 -63 3
-16 8 -46 11 -65 10 -52 11 -284 3 -344 -9 -61 -19 -121 -25 -147 -2 -11 -6
-29 -9 -41 -22 -102 -91 -267 -170 -410 l-26 -46 27 -63 c14 -35 39 -98 54
-139 16 -41 52 -133 80 -205 28 -71 58 -147 65 -167 l14 -37 -37 14 c-36 12
-190 72 -262 100 -19 8 -66 26 -105 40 -38 15 -101 39 -139 55 l-70 28 -51
-32 c-124 -80 -356 -175 -466 -191 -24 -4 -46 -8 -50 -11 -13 -7 -125 -16
-239 -18 -283 -5 -568 78 -793 232 -26 17 -51 32 -56 32 -5 0 -11 3 -13 8 -1
4 -23 23 -48 42 -112 87 -250 248 -332 385 -66 111 -136 282 -160 390 -4 22
-10 49 -13 60 -26 114 -27 423 -1 544 22 109 61 230 97 309 16 35 29 65 29 68
0 14 102 171 156 239 51 66 177 193 236 240 73 59 210 143 232 143 5 0 12 4
15 9 20 27 234 102 371 130 45 9 74 12 160 18 47 4 86 8 87 9 1 1 15 1 30 0
16 -1 64 -5 108 -9z"/>
</g>
</svg>
