<svg xmlns="http://www.w3.org/2000/svg" width="275" height="250">
  <path fill="#FFF" d="M211.72 183.33c10.77-16.157 17.05-35.566 17.05-56.445C228.77 70.617 183.154 25 126.885 25S25 70.616 25 126.885c0 56.27 45.615 101.887 101.885 101.887 21.586 0 41.604-6.71 58.08-18.164l43.973 16.96-17.22-44.238zm-44.055 2.304c-11.562 8.038-25.608 12.745-40.755 12.745-39.485 0-71.494-32.01-71.494-71.496 0-39.484 32.01-71.493 71.494-71.493s71.493 32.01 71.493 71.494c0 14.65-4.406 28.27-11.966 39.607l12.084 31.045-30.854-11.902z"/>
</svg>
