<svg xmlns="http://www.w3.org/2000/svg" width="747" height="250">
  <path d="M221.782 181.56c10.77-16.158 17.05-35.567 17.05-56.446 0-56.268-45.614-101.885-101.884-101.885S35.063 68.84 35.063 125.11c0 56.272 45.615 101.89 101.885 101.89 21.586 0 41.604-6.71 58.08-18.164L239 225.796l-17.218-44.237zm-44.055 2.302c-11.562 8.038-25.607 12.745-40.754 12.745-39.486 0-71.494-32.01-71.494-71.494s32-71.493 71.49-71.493c39.48 0 71.49 32.01 71.49 71.493 0 14.65-4.41 28.27-11.97 39.607l12.08 31.044-30.86-11.902zm98.76-43.147v33.292c0 7.297 3.53 10.943 10.598 10.943 7.064 0 10.6-3.646 10.6-10.943v-33.292h20.85v37.323c0 7.988-2.63 13.98-7.893 17.97C305.382 200 297.53 202 287.085 202c-10.445 0-18.3-2-23.557-5.99-5.262-3.992-7.893-9.983-7.893-17.972v-37.323h20.852zm54.833-22.695c0-1.61.306-3.128.92-4.55.616-1.42 1.46-2.667 2.536-3.744 1.074-1.074 2.322-1.918 3.743-2.535 1.42-.61 2.93-.92 4.55-.92s3.13.31 4.55.92c1.42.62 2.66 1.47 3.74 2.54 1.07 1.08 1.92 2.33 2.53 3.75.61 1.43.92 2.94.92 4.55 0 1.62-.31 3.13-.92 4.56-.62 1.42-1.46 2.67-2.54 3.75s-2.32 1.92-3.75 2.54c-1.42.62-2.94.93-4.55.93s-3.13-.3-4.55-.92c-1.42-.61-2.67-1.45-3.75-2.53-1.08-1.07-1.92-2.32-2.54-3.74-.62-1.42-.92-2.94-.92-4.55zm22.233 22.695v59.096H332.7v-59.09h20.853zm58.865 19.122c-3.61-2.456-7.256-3.687-10.945-3.687-1.996 0-3.857.346-5.586 1.037s-3.244 1.67-4.55 2.938c-1.308 1.267-2.323 2.764-3.052 4.492-.73 1.728-1.094 3.667-1.094 5.816 0 2.073.37 3.976 1.1 5.703.73 1.73 1.73 3.226 3 4.492 1.27 1.267 2.78 2.247 4.55 2.938 1.77.692 3.65 1.038 5.65 1.038 3.92 0 7.57-1.343 10.95-4.032v17.74c-5.14 2.226-10.02 3.34-14.63 3.34-4.3 0-8.39-.73-12.27-2.188-3.88-1.457-7.29-3.552-10.25-6.277-2.96-2.726-5.32-5.99-7.08-9.792-1.77-3.802-2.65-8.044-2.65-12.73 0-4.683.85-8.965 2.54-12.845 1.69-3.877 3.99-7.217 6.91-10.02 2.92-2.804 6.4-4.992 10.43-6.567 4.03-1.573 8.35-2.36 12.96-2.36 5.07 0 9.75 1.074 14.06 3.224v17.74zm35.594-55.64v57.83l21.89-21.313h28.567l-29.61 27.3 31.33 31.796h-29.26L448 175.734v24.076h-20.85v-95.614H448zm61.515 8.755h33.64c7.983 0 14.052 1.92 18.2 5.76s6.22 9.37 6.22 16.588c0 4.377-.788 8.006-2.36 10.886-1.576 2.88-3.977 5.32-7.2 7.315 3.224.62 5.97 1.56 8.235 2.83 2.264 1.27 4.11 2.83 5.53 4.67s2.438 3.92 3.052 6.22c.615 2.31.924 4.77.924 7.38 0 4.07-.713 7.68-2.133 10.83-1.422 3.15-3.418 5.8-5.99 7.95-2.572 2.15-5.7 3.77-9.39 4.84-3.685 1.08-7.83 1.61-12.44 1.61h-36.287v-86.86zm22.58 34.1h4.146c7.064 0 10.598-2.805 10.598-8.412 0-5.604-3.53-8.41-10.59-8.41h-4.14v16.82zm0 35.248h4.953c5.684 0 9.752-.73 12.21-2.188 2.458-1.46 3.687-3.802 3.687-7.027 0-3.227-1.23-5.567-3.686-7.026-2.45-1.46-6.52-2.19-12.21-2.19h-4.95v18.43zm53.795-64.28c0-1.61.307-3.128.92-4.55.617-1.42 1.46-2.667 2.535-3.744 1.074-1.074 2.322-1.918 3.744-2.535 1.42-.61 2.94-.92 4.56-.92s3.13.31 4.55.92c1.42.62 2.67 1.47 3.75 2.54 1.08 1.08 1.92 2.33 2.54 3.75.62 1.43.93 2.94.93 4.55 0 1.62-.31 3.13-.92 4.56-.61 1.42-1.46 2.67-2.53 3.75-1.08 1.08-2.32 1.92-3.74 2.54-1.42.62-2.93.93-4.55.93s-3.13-.3-4.55-.92c-1.42-.61-2.67-1.45-3.74-2.53-1.08-1.07-1.92-2.32-2.534-3.74-.617-1.42-.92-2.94-.92-4.55zm22.233 22.695v59.096h-20.85v-59.09h20.85zm37.555 17.395v41.7h-20.85v-41.7h-6.913v-17.396h6.912v-17.74h20.85v17.74h11.86v17.395h-11.86zm59.44-2.19c-3.84-1.995-7.605-2.995-11.29-2.995-1.92 0-3.477.386-4.666 1.152-1.193.77-1.785 1.805-1.785 3.11 0 .69.09 1.25.28 1.67.19.424.61.827 1.27 1.21.65.386 1.61.73 2.88 1.036 1.26.308 2.94.692 5.01 1.152 5.76 1.152 10.06 3.207 12.9 6.163 2.84 2.958 4.26 6.74 4.26 11.348 0 3.456-.7 6.566-2.08 9.33-1.39 2.766-3.31 5.09-5.76 6.97-2.46 1.884-5.42 3.34-8.87 4.378-3.46 1.036-7.26 1.556-11.41 1.556-7.99 0-15.86-2.266-23.62-6.798l7.6-14.745c5.83 3.994 11.36 5.99 16.59 5.99 1.92 0 3.49-.42 4.72-1.268 1.23-.85 1.84-1.92 1.84-3.23 0-.77-.1-1.4-.29-1.9-.19-.5-.59-.96-1.21-1.39-.618-.42-1.52-.81-2.708-1.15-1.194-.35-2.75-.71-4.667-1.1-6.45-1.31-10.97-3.24-13.54-5.82-2.57-2.57-3.86-6.13-3.86-10.66 0-3.3.616-6.28 1.847-8.93 1.23-2.65 2.996-4.9 5.3-6.74 2.3-1.84 5.087-3.26 8.355-4.26 3.26-1 6.89-1.5 10.884-1.5 6.53 0 12.866 1.26 19.01 3.8l-7.03 13.59z"/>
</svg>
