<svg xmlns="http://www.w3.org/2000/svg" width="525" height="250">
  <path fill="#FFF" d="M262.398 64.29v33.292c0 7.297 3.53 10.943 10.6 10.943 7.063 0 10.598-3.646 10.598-10.943V64.29h20.85v37.323c0 7.988-2.63 13.98-7.89 17.97-5.263 3.993-13.116 5.992-23.56 5.992-10.445 0-18.3-2-23.557-5.99-5.27-3.992-7.9-9.983-7.9-17.972V64.29h20.85zm54.834-22.695c0-1.61.307-3.128.92-4.55.617-1.42 1.46-2.667 2.535-3.744 1.075-1.07 2.323-1.91 3.744-2.53 1.42-.61 2.94-.92 4.56-.92s3.13.31 4.55.92c1.42.62 2.67 1.46 3.75 2.54s1.92 2.33 2.54 3.75c.62 1.42.93 2.94.93 4.55 0 1.61-.31 3.13-.92 4.55-.61 1.42-1.46 2.67-2.53 3.75-1.08 1.08-2.32 1.92-3.74 2.54-1.42.62-2.93.93-4.55.93s-3.13-.31-4.55-.92c-1.42-.61-2.67-1.45-3.74-2.53-1.08-1.07-1.92-2.32-2.532-3.74-.617-1.42-.92-2.94-.92-4.55zm22.233 22.695v59.096h-20.85V64.29h20.85zm58.867 19.122c-3.613-2.456-7.258-3.687-10.945-3.687-1.998 0-3.857.346-5.586 1.037-1.73.69-3.24 1.67-4.55 2.938-1.31 1.267-2.32 2.764-3.05 4.492-.73 1.728-1.09 3.667-1.09 5.816 0 2.073.37 3.976 1.1 5.703.73 1.73 1.73 3.23 3 4.5s2.79 2.25 4.55 2.94c1.77.7 3.65 1.04 5.65 1.04 3.92 0 7.57-1.34 10.95-4.03v17.74c-5.14 2.23-10.02 3.34-14.63 3.34-4.3 0-8.39-.73-12.27-2.19-3.88-1.45-7.3-3.55-10.25-6.27s-5.32-5.99-7.08-9.79c-1.76-3.8-2.64-8.04-2.64-12.73 0-4.68.85-8.96 2.54-12.84 1.69-3.87 3.99-7.21 6.92-10.02 2.92-2.8 6.397-4.99 10.43-6.56 4.03-1.57 8.35-2.36 12.96-2.36 5.067 0 9.75 1.08 14.054 3.23v17.74zm35.594-55.642V85.6l21.89-21.31h28.565l-29.6 27.3 31.34 31.795h-29.27L433.93 99.31v24.076h-20.852V27.77h20.852zM211.72 183.33c10.77-16.157 17.05-35.566 17.05-56.445C228.77 70.617 183.154 25 126.885 25S25 70.616 25 126.885c0 56.27 45.615 101.887 101.885 101.887 21.586 0 41.604-6.71 58.08-18.164l43.973 16.96-17.22-44.238zm-44.055 2.304c-11.562 8.038-25.608 12.745-40.755 12.745-39.485 0-71.494-32.01-71.494-71.5s32.01-71.5 71.494-71.5 71.493 32.01 71.493 71.49c0 14.65-4.406 28.27-11.966 39.6l12.084 31.04-30.85-11.9zm89.687-45.91h33.64c7.983 0 14.052 1.92 18.2 5.76s6.22 9.37 6.22 16.588c0 4.377-.788 8.006-2.36 10.886-1.576 2.88-3.977 5.32-7.2 7.315 3.224.616 5.97 1.556 8.235 2.822 2.264 1.267 4.11 2.823 5.53 4.666 1.42 1.85 2.438 3.92 3.052 6.22.61 2.31.92 4.77.92 7.38 0 4.07-.72 7.68-2.14 10.83-1.43 3.15-3.42 5.8-5.99 7.95-2.58 2.15-5.7 3.77-9.39 4.84-3.69 1.08-7.83 1.62-12.44 1.62h-36.28v-86.86zm22.58 34.098h4.146c7.064 0 10.598-2.804 10.598-8.41 0-5.605-3.533-8.41-10.598-8.41h-4.146v16.82zm0 35.25h4.953c5.684 0 9.752-.73 12.21-2.19 2.458-1.458 3.687-3.8 3.687-7.026 0-3.227-1.23-5.567-3.686-7.026-2.46-1.46-6.527-2.19-12.21-2.19h-4.954v18.43zm53.795-64.282c0-1.61.307-3.127.92-4.55.617-1.42 1.46-2.666 2.535-3.743 1.074-1.074 2.322-1.918 3.744-2.535 1.42-.612 2.938-.92 4.55-.92s3.13.308 4.552.92c1.42.617 2.666 1.46 3.742 2.535 1.076 1.077 1.92 2.324 2.535 3.744.615 1.43.924 2.94.924 4.55 0 1.62-.31 3.13-.93 4.56-.62 1.42-1.46 2.67-2.54 3.75s-2.33 1.92-3.75 2.54c-1.42.62-2.94.93-4.55.93s-3.13-.3-4.55-.92c-1.42-.61-2.67-1.46-3.75-2.53-1.08-1.07-1.92-2.32-2.54-3.74-.61-1.42-.92-2.94-.92-4.55zm22.232 22.696v59.096h-20.85v-59.096h20.85zm37.55 17.394v41.702h-20.85v-41.7h-6.91v-17.396h6.91v-17.74h20.85v17.74h11.86v17.395h-11.86zm59.44-2.19c-3.84-1.994-7.61-2.994-11.29-2.994-1.92 0-3.48.386-4.67 1.152-1.2.77-1.79 1.805-1.79 3.11 0 .69.09 1.25.28 1.67.19.424.61.827 1.26 1.21.65.386 1.61.73 2.88 1.036 1.26.308 2.94.692 5.01 1.152 5.76 1.152 10.06 3.207 12.9 6.163 2.84 2.95 4.27 6.73 4.27 11.34 0 3.45-.7 6.56-2.08 9.33-1.39 2.76-3.31 5.09-5.76 6.97-2.46 1.88-5.42 3.34-8.87 4.38-3.46 1.03-7.26 1.55-11.41 1.55-7.99 0-15.86-2.27-23.62-6.8l7.607-14.75c5.84 3.99 11.364 5.99 16.59 5.99 1.92 0 3.494-.42 4.723-1.27 1.23-.85 1.847-1.92 1.847-3.23 0-.77-.1-1.4-.29-1.9-.19-.5-.593-.96-1.21-1.39-.61-.42-1.514-.8-2.7-1.15-1.194-.35-2.75-.71-4.667-1.1-6.45-1.31-10.97-3.25-13.54-5.82-2.57-2.57-3.86-6.12-3.86-10.66 0-3.308.62-6.28 1.85-8.93 1.23-2.65 2.993-4.9 5.3-6.74 2.3-1.84 5.084-3.267 8.352-4.26 3.26-1 6.89-1.5 10.882-1.5 6.525 0 12.86 1.27 19.004 3.8l-7.03 13.592z"/>
</svg>
