<svg xmlns="http://www.w3.org/2000/svg" width="779.742" height="167.699" viewBox="0 0 779.742 167.699">
  <path fill="#FFF" d="M212.864 118.624c0-6.45 1.19-12.46 3.57-18.028 2.38-5.567 5.682-10.425 9.908-14.572 4.223-4.148 9.273-7.39 15.146-9.734 5.877-2.342 12.346-3.514 19.41-3.514 6.99 0 13.44 1.172 19.356 3.514 5.912 2.344 11 5.586 15.262 9.734 4.263 4.147 7.584 9.005 9.965 14.572 2.38 5.57 3.57 11.578 3.57 18.028 0 5.99-.97 11.56-2.93 16.704-1.96 5.146-4.78 9.716-8.47 13.708l14.75 15.438-20.73 3.226-7.95-8.18c-3.38 1.537-6.97 2.745-10.77 3.628s-7.81 1.326-12.04 1.326c-7.06 0-13.53-1.172-19.41-3.514-5.87-2.342-10.92-5.588-15.14-9.734-4.22-4.146-7.52-9.003-9.9-14.572-2.38-5.57-3.57-11.58-3.57-18.03zm23.614 0c0 3.456.652 6.644 1.958 9.562 1.305 2.92 3.072 5.455 5.3 7.603 2.226 2.15 4.82 3.82 7.776 5.01 2.956 1.19 6.085 1.78 9.387 1.78 1.99 0 3.99-.23 5.99-.69l-12.9-13.59 21.31-2.65 5.99 6.33c2.76-3.84 4.14-8.3 4.14-13.37 0-3.46-.65-6.65-1.96-9.56-1.31-2.92-3.09-5.45-5.36-7.6-2.27-2.15-4.88-3.82-7.84-5.01s-6.09-1.79-9.39-1.79c-3.31 0-6.44.59-9.39 1.78-2.96 1.19-5.55 2.86-7.78 5.01-2.23 2.15-4 4.68-5.3 7.6-1.31 2.92-1.96 6.1-1.96 9.56zm105.752-15.666v33.292c0 7.297 3.53 10.943 10.597 10.943 7.064 0 10.6-3.646 10.6-10.943v-33.292h20.85v37.323c0 7.99-2.63 13.98-7.892 17.98-5.26 3.99-13.114 5.99-23.557 5.99-10.446 0-18.3-2-23.557-5.99-5.26-3.99-7.89-9.98-7.89-17.97v-37.33h20.85zm54.832-22.696c0-1.61.307-3.128.92-4.55.617-1.42 1.46-2.667 2.536-3.744 1.075-1.074 2.323-1.918 3.744-2.535 1.42-.612 2.938-.92 4.55-.92s3.13.308 4.55.92c1.422.617 2.668 1.46 3.744 2.535 1.076 1.077 1.92 2.324 2.535 3.744.62 1.422.93 2.938.93 4.55 0 1.612-.31 3.13-.92 4.552-.61 1.42-1.46 2.668-2.53 3.743-1.07 1.076-2.32 1.92-3.74 2.533-1.42.616-2.93.923-4.55.923s-3.13-.307-4.55-.923c-1.42-.612-2.67-1.457-3.74-2.533-1.07-1.075-1.92-2.322-2.53-3.743-.61-1.422-.92-2.94-.92-4.552zm22.233 22.696v59.096h-20.85v-59.096h20.85zm58.865 19.122c-3.61-2.456-7.256-3.687-10.944-3.687-1.997 0-3.857.346-5.586 1.037-1.73.69-3.245 1.67-4.55 2.938-1.31 1.267-2.324 2.764-3.053 4.492-.73 1.728-1.094 3.667-1.094 5.816 0 2.073.363 3.976 1.094 5.703.73 1.72 1.727 3.22 2.994 4.49 1.27 1.26 2.79 2.24 4.56 2.94 1.77.69 3.65 1.03 5.65 1.03 3.92 0 7.57-1.35 10.95-4.03v17.74c-5.14 2.22-10.02 3.34-14.63 3.34-4.3 0-8.39-.73-12.27-2.19-3.88-1.46-7.29-3.55-10.25-6.28-2.96-2.73-5.32-5.99-7.08-9.8-1.76-3.8-2.65-8.05-2.65-12.73 0-4.69.85-8.97 2.54-12.85 1.69-3.88 3.99-7.22 6.91-10.02 2.92-2.81 6.4-5 10.43-6.57 4.03-1.58 8.35-2.36 12.96-2.36 5.07 0 9.75 1.07 14.06 3.22v17.74zm35.595-55.64v57.828l21.89-21.31h28.566l-29.6 27.3 31.34 31.795h-29.26l-22.92-24.076v24.076h-20.85V66.44h20.85zm61.515 8.755h33.64c7.984 0 14.052 1.92 18.2 5.76s6.222 9.37 6.222 16.588c0 4.377-.79 8.006-2.362 10.886-1.575 2.88-3.976 5.32-7.2 7.31 3.225.61 5.97 1.55 8.236 2.82 2.264 1.26 4.108 2.82 5.53 4.66s2.437 3.91 3.052 6.22c.615 2.3.923 4.76.923 7.37 0 4.07-.71 7.68-2.13 10.83-1.42 3.15-3.42 5.8-5.99 7.95-2.57 2.15-5.7 3.76-9.39 4.84-3.68 1.07-7.83 1.61-12.44 1.61h-36.29V75.19zm22.58 34.098h4.146c7.064 0 10.6-2.804 10.6-8.41 0-5.605-3.535-8.41-10.6-8.41h-4.146v16.82zm0 35.25h4.953c5.684 0 9.752-.73 12.21-2.19 2.46-1.458 3.688-3.8 3.688-7.026 0-3.227-1.22-5.567-3.68-7.026-2.46-1.45-6.52-2.18-12.21-2.18h-4.95v18.43zm53.795-64.28c0-1.61.307-3.13.92-4.55.617-1.42 1.46-2.668 2.536-3.745 1.08-1.074 2.33-1.918 3.75-2.535 1.42-.612 2.94-.92 4.55-.92 1.61 0 3.13.308 4.55.92 1.42.617 2.67 1.46 3.75 2.535 1.08 1.077 1.92 2.324 2.54 3.744.62 1.422.93 2.938.93 4.55 0 1.612-.31 3.13-.92 4.552-.61 1.42-1.46 2.668-2.53 3.743-1.08 1.076-2.32 1.92-3.74 2.533-1.42.616-2.933.923-4.55.923-1.61 0-3.13-.307-4.55-.923-1.42-.612-2.67-1.457-3.74-2.533-1.073-1.075-1.916-2.322-2.532-3.743-.61-1.422-.92-2.94-.92-4.552zm22.233 22.695v59.096h-20.85v-59.096h20.85zm37.555 17.394v41.7h-20.85v-41.7h-6.913v-17.395h6.912v-17.74h20.85v17.74H723.3v17.395h-11.865zm59.437-2.19c-3.84-1.994-7.602-2.994-11.288-2.994-1.92 0-3.477.386-4.666 1.152-1.192.77-1.784 1.805-1.784 3.11 0 .69.094 1.25.287 1.67.19.424.61.827 1.26 1.21.65.386 1.61.73 2.88 1.036 1.26.308 2.94.692 5.01 1.152 5.76 1.152 10.06 3.207 12.9 6.163 2.84 2.96 4.26 6.74 4.26 11.35 0 3.46-.69 6.57-2.08 9.33-1.39 2.77-3.31 5.09-5.76 6.97-2.46 1.89-5.42 3.34-8.87 4.38-3.46 1.04-7.26 1.56-11.41 1.56-7.99 0-15.86-2.26-23.62-6.8l7.6-14.74c5.83 4 11.36 5.99 16.59 5.99 1.91 0 3.49-.42 4.72-1.26 1.23-.84 1.84-1.91 1.84-3.22 0-.77-.1-1.4-.29-1.9-.19-.49-.6-.96-1.21-1.38-.62-.42-1.52-.8-2.71-1.15-1.19-.34-2.75-.71-4.666-1.09-6.456-1.3-10.97-3.24-13.54-5.81-2.576-2.57-3.86-6.12-3.86-10.652 0-3.305.612-6.28 1.843-8.93 1.23-2.65 2.99-4.9 5.3-6.74 2.3-1.84 5.08-3.265 8.35-4.26 3.26-1 6.89-1.5 10.884-1.5 6.526 0 12.86 1.27 19.006 3.8l-7.03 13.595zm-617.214 12.132c8.865-13.297 14.032-29.27 14.032-46.45C167.688 37.54 130.15 0 83.844 0S0 37.54 0 83.844c0 46.307 37.538 83.845 83.844 83.845 17.763 0 34.237-5.53 47.796-14.95l36.186 13.95-14.17-36.41zm-93.317 21.76L71.65 84.7H41.907l18.383-68h55.55l-11.656 51h29.968l-73.81 84.352z"/>
</svg>
